/* XPM */
static char * F:\develop\cpp\cpp_projects\rep_coin\lioncoin\lioncoin_master2\share\pixmaps\lioncoin16_xpm[] = {
"16 16 207 2",
"  	c None",
". 	c #AF793A",
"+ 	c #B17221",
"@ 	c #A86713",
"# 	c #AD6A14",
"$ 	c #AF7124",
"% 	c #C38C4A",
"& 	c #936534",
"* 	c #AD6203",
"= 	c #965100",
"- 	c #814900",
"; 	c #704306",
"> 	c #6A4005",
", 	c #552C00",
"' 	c #562700",
") 	c #8A4C04",
"! 	c #CFA068",
"~ 	c #996B37",
"{ 	c #AE5A00",
"] 	c #905706",
"^ 	c #3D2609",
"/ 	c #3A2106",
"( 	c #311B05",
"_ 	c #2B1803",
": 	c #2B1804",
"< 	c #2A1805",
"[ 	c #2F1500",
"} 	c #632600",
"| 	c #C2904D",
"1 	c #7F592E",
"2 	c #AD5900",
"3 	c #B5710F",
"4 	c #51310A",
"5 	c #241404",
"6 	c #4C2D08",
"7 	c #69400C",
"8 	c #593508",
"9 	c #241403",
"0 	c #341D04",
"a 	c #3F2506",
"b 	c #180D00",
"c 	c #431100",
"d 	c #C8A46F",
"e 	c #A45B00",
"f 	c #C1780F",
"g 	c #935C11",
"h 	c #7C4D0F",
"i 	c #965E13",
"j 	c #482C09",
"k 	c #814F0F",
"l 	c #865310",
"m 	c #140C02",
"n 	c #2D1904",
"o 	c #482906",
"p 	c #432706",
"q 	c #0F0300",
"r 	c #754200",
"s 	c #84531A",
"t 	c #CD7A07",
"u 	c #AC6E17",
"v 	c #895511",
"w 	c #794B0F",
"x 	c #B06F17",
"y 	c #3F2406",
"z 	c #3C2307",
"A 	c #643C0B",
"B 	c #432707",
"C 	c #321D05",
"D 	c #442908",
"E 	c #211403",
"F 	c #612D00",
"G 	c #D1A769",
"H 	c #814C0A",
"I 	c #965E0F",
"J 	c #A76915",
"K 	c #A16515",
"L 	c #B67217",
"M 	c #673E0C",
"N 	c #251403",
"O 	c #492C08",
"P 	c #4C2F09",
"Q 	c #623B0B",
"R 	c #54330A",
"S 	c #3D2708",
"T 	c #422A09",
"U 	c #231605",
"V 	c #4F2900",
"W 	c #BE8534",
"X 	c #784608",
"Y 	c #6E460F",
"Z 	c #986013",
"` 	c #784B0F",
" .	c #915B13",
"..	c #9B6113",
"+.	c #513009",
"@.	c #4B2C08",
"#.	c #4A2D09",
"$.	c #2A1904",
"%.	c #66400E",
"&.	c #57380C",
"*.	c #432A09",
"=.	c #251705",
"-.	c #673E06",
";.	c #C27F20",
">.	c #AA660E",
",.	c #9A6013",
"'.	c #784A0F",
").	c #986014",
"!.	c #643D0C",
"~.	c #8A5611",
"{.	c #683F0C",
"].	c #291704",
"^.	c #3A2206",
"/.	c #321F06",
"(.	c #3B2609",
"_.	c #382308",
":.	c #241705",
"<.	c #372309",
"[.	c #A4650D",
"}.	c #BE7C1F",
"|.	c #93590E",
"1.	c #CB7F15",
"2.	c #BE7819",
"3.	c #C8801B",
"4.	c #9C6315",
"5.	c #895713",
"6.	c #3E2507",
"7.	c #3D2307",
"8.	c #53340B",
"9.	c #442C0A",
"0.	c #301F07",
"a.	c #241805",
"b.	c #0F0A03",
"c.	c #412B0B",
"d.	c #BF7003",
"e.	c #B78032",
"f.	c #724818",
"g.	c #CE7C0B",
"h.	c #855110",
"i.	c #54320A",
"j.	c #7A4C10",
"k.	c #55340B",
"l.	c #56360C",
"m.	c #492F0B",
"n.	c #412909",
"o.	c #3B2508",
"p.	c #261805",
"q.	c #0A0702",
"r.	c #7F5313",
"s.	c #C66D00",
"t.	c #B9935D",
"u.	c #AD6303",
"v.	c #CA8016",
"w.	c #AA6A16",
"x.	c #8B5511",
"y.	c #77480D",
"z.	c #472C09",
"A.	c #312007",
"B.	c #261704",
"C.	c #3E2608",
"D.	c #392308",
"E.	c #301F08",
"F.	c #7C5012",
"G.	c #CA7B0D",
"H.	c #A96202",
"I.	c #6B461C",
"J.	c #BD6800",
"K.	c #CD841B",
"L.	c #C87F1A",
"M.	c #794D11",
"N.	c #4B300B",
"O.	c #2B1A05",
"P.	c #2A1804",
"Q.	c #4A2E0A",
"R.	c #6F470F",
"S.	c #B17219",
"T.	c #CE8117",
"U.	c #AF5A00",
"V.	c #B08A56",
"W.	c #92622B",
"X.	c #DA7B00",
"Y.	c #6B4309",
"Z.	c #181106",
"`.	c #130D03",
" +	c #613D0D",
".+	c #A06514",
"++	c #A96B16",
"@+	c #CC821B",
"#+	c #CB7D12",
"$+	c #B15D00",
"%+	c #A97D42",
"&+	c #784B1B",
"*+	c #5E3301",
"=+	c #663A00",
"-+	c #A3630B",
";+	c #CD8015",
">+	c #D68615",
",+	c #CF7E0F",
"'+	c #BB6D03",
")+	c #A75F02",
"!+	c #A17644",
"~+	c #976120",
"{+	c #AF6B16",
"]+	c #A66311",
"^+	c #A26211",
"/+	c #9A5F15",
"(+	c #946429",
"          . + @ # $ %           ",
"      & * = - ; > , ' ) !       ",
"    ~ { ] ^ / ( _ : < [ } |     ",
"  1 2 3 4 5 6 7 8 9 0 a b c d   ",
"  e f g h i j k l m n o p q r   ",
"s t u v w x 7 y z A B C D E F G ",
"H I J K L M N O P Q R S T U V W ",
"X Y Z `  ...+.@.#.$.%.&.*.=.-.;.",
">.,.'.).!.~.{.].^./.(._.:.<.[.}.",
"|.1.2.3.4.5.6.7.8.9.0.a.b.c.d.e.",
"f.g.3.h.i.j.k.l.m.n.o.p.q.r.s.t.",
"  u.v.w.x.y.z.A.B.C.D.E.F.G.H.  ",
"  I.J.K.L.M.N.O.P.Q.R.S.T.U.V.  ",
"    W.X.Y.Z.`. +.+++@+#+$+%+    ",
"      &+*+=+-+;+>+,+'+)+!+      ",
"          ~+{+]+^+/+(+          "};
