/* XPM */
static char * F:\develop\cpp\cpp_projects\rep_coin\lioncoin\lioncoin_master2\share\pixmaps\lioncoin32_xpm[] = {
"32 32 752 2",
"  	c None",
". 	c #9E7040",
"+ 	c #9C682D",
"@ 	c #965E1C",
"# 	c #985D17",
"$ 	c #9A5F18",
"% 	c #9C6320",
"& 	c #A47033",
"* 	c #AE804B",
"= 	c #976A3D",
"- 	c #945713",
"; 	c #9B5500",
"> 	c #A35700",
", 	c #A55B00",
"' 	c #BB6D02",
") 	c #C07107",
"! 	c #AE6704",
"~ 	c #B86A00",
"{ 	c #B96700",
"] 	c #A95B00",
"^ 	c #AB5F00",
"/ 	c #A96B20",
"( 	c #AD8456",
"_ 	c #8F4D07",
": 	c #A05300",
"< 	c #B66A02",
"[ 	c #B36D0C",
"} 	c #AA6A10",
"| 	c #BC7511",
"1 	c #73460A",
"2 	c #653F0B",
"3 	c #AE6D11",
"4 	c #9A5E0D",
"5 	c #533307",
"6 	c #69420B",
"7 	c #8D5408",
"8 	c #975400",
"9 	c #AB5900",
"0 	c #9B5D14",
"a 	c #B89C7C",
"b 	c #7F4918",
"c 	c #9C4D00",
"d 	c #AD6604",
"e 	c #BB7511",
"f 	c #B57010",
"g 	c #6B410B",
"h 	c #6E430B",
"i 	c #523006",
"j 	c #533007",
"k 	c #392105",
"l 	c #422705",
"m 	c #3F2505",
"n 	c #331E06",
"o 	c #1B1103",
"p 	c #1F1204",
"q 	c #312007",
"r 	c #82500C",
"s 	c #9B5300",
"t 	c #934700",
"u 	c #A0733F",
"v 	c #804711",
"w 	c #A55500",
"x 	c #AE6D0E",
"y 	c #AE6C10",
"z 	c #A1630E",
"A 	c #311D04",
"B 	c #2E1D08",
"C 	c #412707",
"D 	c #321C05",
"E 	c #844E0D",
"F 	c #4E2D06",
"G 	c #1E1103",
"H 	c #583609",
"I 	c #341D04",
"J 	c #3C2205",
"K 	c #5D3608",
"L 	c #281703",
"M 	c #3C2306",
"N 	c #5F3909",
"O 	c #995A07",
"P 	c #B95D00",
"Q 	c #9E6826",
"R 	c #884A0C",
"S 	c #AC5A00",
"T 	c #A86B10",
"U 	c #B26F10",
"V 	c #965C0C",
"W 	c #362005",
"X 	c #3D2608",
"Y 	c #372107",
"Z 	c #462907",
"` 	c #382005",
" .	c #311D06",
"..	c #613A0B",
"+.	c #512E07",
"@.	c #4A2A05",
"#.	c #221402",
"$.	c #2B1A04",
"%.	c #593206",
"&.	c #562F06",
"*.	c #2E1903",
"=.	c #110902",
"-.	c #241604",
";.	c #794A09",
">.	c #BD6100",
",.	c #A46B24",
"'.	c #75430F",
").	c #AD5900",
"!.	c #AD6E11",
"~.	c #A6670F",
"{.	c #C47A12",
"].	c #623B09",
"^.	c #3E2709",
"/.	c #73460D",
"(.	c #683C09",
"_.	c #673D0A",
":.	c #3A2307",
"<.	c #291703",
"[.	c #412505",
"}.	c #5B3407",
"|.	c #4F2F07",
"1.	c #2C1903",
"2.	c #261603",
"3.	c #301B04",
"4.	c #522F06",
"5.	c #502F07",
"6.	c #2D1B04",
"7.	c #1B1003",
"8.	c #452A05",
"9.	c #A85400",
"0.	c #B88741",
"a.	c #A25100",
"b.	c #A4660F",
"c.	c #AD6C0F",
"d.	c #B26C10",
"e.	c #422707",
"f.	c #261706",
"g.	c #231303",
"h.	c #0F0701",
"i.	c #54340A",
"j.	c #AE6A13",
"k.	c #6A3F0B",
"l.	c #74470C",
"m.	c #84500D",
"n.	c #492B07",
"o.	c #2B1803",
"p.	c #3E2305",
"q.	c #1D1103",
"r.	c #130B02",
"s.	c #543007",
"t.	c #563207",
"u.	c #4C2D06",
"v.	c #351F04",
"w.	c #150C02",
"x.	c #422501",
"y.	c #934A00",
"z.	c #C5AD8A",
"A.	c #904E00",
"B.	c #B76D08",
"C.	c #A86911",
"D.	c #AB6A10",
"E.	c #BF7814",
"F.	c #995E0F",
"G.	c #74470E",
"H.	c #925C12",
"I.	c #8D5710",
"J.	c #683E0B",
"K.	c #090401",
"L.	c #1E1305",
"M.	c #6F440E",
"N.	c #9D6313",
"O.	c #9D6213",
"P.	c #53340B",
"Q.	c #1A1004",
"R.	c #020100",
"S.	c #2F1B04",
"T.	c #432606",
"U.	c #372005",
"V.	c #452706",
"W.	c #472A07",
"X.	c #231403",
"Y.	c #0C0703",
"Z.	c #763F00",
"`.	c #A76911",
" +	c #6D4720",
".+	c #B16000",
"++	c #B27115",
"@+	c #B06E14",
"#+	c #B97515",
"$+	c #9F6312",
"%+	c #6B420D",
"&+	c #935C12",
"*+	c #B57217",
"=+	c #CB811A",
"-+	c #C77D19",
";+	c #5C380B",
">+	c #3D2507",
",+	c #AF6D16",
"'+	c #7F4D10",
")+	c #59370C",
"!+	c #53340A",
"~+	c #0A0500",
"{+	c #321B04",
"]+	c #412506",
"^+	c #4E2C07",
"/+	c #3F2506",
"(+	c #4E2E08",
"_+	c #613C0B",
":+	c #0F0902",
"<+	c #5D3A09",
"[+	c #BC6600",
"}+	c #B69E79",
"|+	c #8B500A",
"1+	c #BE730B",
"2+	c #B06F14",
"3+	c #BB7615",
"4+	c #C37C17",
"5+	c #825010",
"6+	c #8E5812",
"7+	c #72450D",
"8+	c #4D3009",
"9+	c #9D6314",
"0+	c #CE841C",
"a+	c #E08D1C",
"b+	c #4B2B07",
"c+	c #2C1A04",
"d+	c #88510E",
"e+	c #5B3609",
"f+	c #362006",
"g+	c #492B08",
"h+	c #7C4B0E",
"i+	c #74430C",
"j+	c #402507",
"k+	c #221304",
"l+	c #221504",
"m+	c #352006",
"n+	c #1D1405",
"o+	c #AD6300",
"p+	c #B17929",
"q+	c #A55D02",
"r+	c #C27C16",
"s+	c #BB7715",
"t+	c #975D12",
"u+	c #AC6B15",
"v+	c #A16515",
"w+	c #643C0C",
"x+	c #8E5811",
"y+	c #875411",
"z+	c #A36614",
"A+	c #57350A",
"B+	c #180D02",
"C+	c #77460C",
"D+	c #1D1003",
"E+	c #211404",
"F+	c #432707",
"G+	c #643A0A",
"H+	c #905810",
"I+	c #70440D",
"J+	c #3A2206",
"K+	c #1A0F03",
"L+	c #322007",
"M+	c #4F310A",
"N+	c #482B08",
"O+	c #211304",
"P+	c #2A1905",
"Q+	c #51310A",
"R+	c #774908",
"S+	c #BE7104",
"T+	c #6C4114",
"U+	c #C07108",
"V+	c #C98018",
"W+	c #9A6112",
"X+	c #9F6314",
"Y+	c #955C12",
"Z+	c #975E13",
"`+	c #855210",
" @	c #955E12",
".@	c #B97317",
"+@	c #432908",
"@@	c #673D0C",
"#@	c #140B02",
"$@	c #110A02",
"%@	c #C27717",
"&@	c #55350B",
"*@	c #070401",
"=@	c #68400C",
"-@	c #895410",
";@	c #6E440D",
">@	c #462B08",
",@	c #261705",
"'@	c #4D2F0A",
")@	c #311F07",
"!@	c #482E0A",
"~@	c #382308",
"{@	c #321F06",
"]@	c #3B2508",
"^@	c #58360B",
"/@	c #8B5710",
"(@	c #AB6100",
"_@	c #B8996A",
":@	c #864F0F",
"<@	c #BD720D",
"[@	c #52330A",
"}@	c #784B10",
"|@	c #BD7617",
"1@	c #996113",
"2@	c #9A6215",
"3@	c #A96A16",
"4@	c #A16414",
"5@	c #B77318",
"6@	c #9B6113",
"7@	c #3F2406",
"8@	c #442907",
"9@	c #442A08",
"0@	c #673F0C",
"a@	c #59350B",
"b@	c #77490F",
"c@	c #683F0C",
"d@	c #291804",
"e@	c #5A380C",
"f@	c #613C0C",
"g@	c #331F06",
"h@	c #4C2F0A",
"i@	c #362207",
"j@	c #402909",
"k@	c #0E0903",
"l@	c #71480E",
"m@	c #C26F00",
"n@	c #B0874B",
"o@	c #A3600E",
"p@	c #724308",
"q@	c #030301",
"r@	c #9A6214",
"s@	c #B67316",
"t@	c #A36615",
"u@	c #AC6E17",
"v@	c #A56816",
"w@	c #895512",
"x@	c #CB801A",
"y@	c #BE7718",
"z@	c #653F0C",
"A@	c #412607",
"B@	c #533008",
"C@	c #0D0600",
"D@	c #5E390A",
"E@	c #885311",
"F@	c #060200",
"G@	c #4B2D08",
"H@	c #58350B",
"I@	c #935D14",
"J@	c #67410E",
"K@	c #191004",
"L@	c #51330B",
"M@	c #3A2408",
"N@	c #3E2708",
"O@	c #3D2607",
"P@	c #100A03",
"Q@	c #734A0F",
"R@	c #D47F06",
"S@	c #AA7B36",
"T@	c #945509",
"U@	c #A36511",
"V@	c #875410",
"W@	c #A96A15",
"X@	c #BD7818",
"Y@	c #935B12",
"Z@	c #3D2407",
"`@	c #6E440E",
" #	c #623F0D",
".#	c #A56715",
"+#	c #C67B19",
"@#	c #8D5711",
"##	c #311E05",
"$#	c #683D0B",
"%#	c #693F0C",
"&#	c #301D05",
"*#	c #241504",
"=#	c #221403",
"-#	c #442908",
";#	c #412809",
">#	c #54360C",
",#	c #784B11",
"'#	c #261605",
")#	c #462D0A",
"!#	c #3F2809",
"~#	c #452A09",
"{#	c #281805",
"]#	c #613F0F",
"^#	c #C27B18",
"/#	c #BD720B",
"(#	c #A57329",
"_#	c #905208",
":#	c #CE8216",
"<#	c #7A4A0D",
"[#	c #4B2B08",
"}#	c #643D0C",
"|#	c #5E3A0C",
"1#	c #805010",
"2#	c #865311",
"3#	c #9D6012",
"4#	c #321D05",
"5#	c #5C3A0D",
"6#	c #B26F17",
"7#	c #5D380B",
"8#	c #7B4B0E",
"9#	c #502D07",
"0#	c #2D1C06",
"a#	c #512F09",
"b#	c #432708",
"c#	c #472C09",
"d#	c #251605",
"e#	c #402809",
"f#	c #4E330C",
"g#	c #422A09",
"h#	c #362107",
"i#	c #332007",
"j#	c #432B0A",
"k#	c #1F1304",
"l#	c #855613",
"m#	c #D18419",
"n#	c #B9700B",
"o#	c #A27127",
"p#	c #864D09",
"q#	c #C97E14",
"r#	c #A76914",
"s#	c #824F0F",
"t#	c #72440D",
"u#	c #996114",
"v#	c #E79520",
"w#	c #A66916",
"x#	c #76480E",
"y#	c #885210",
"z#	c #633D0E",
"A#	c #945C13",
"B#	c #482A08",
"C#	c #412608",
"D#	c #000000",
"E#	c #864F0E",
"F#	c #281704",
"G#	c #382508",
"H#	c #5E3B0D",
"I#	c #2E1F08",
"J#	c #442B09",
"K#	c #030100",
"L#	c #251705",
"M#	c #281906",
"N#	c #4D320B",
"O#	c #261805",
"P#	c #8E5B13",
"Q#	c #C67D17",
"R#	c #BB7006",
"S#	c #A67631",
"T#	c #78460E",
"U#	c #C1750D",
"V#	c #BE7918",
"W#	c #BE7818",
"X#	c #B97517",
"Y#	c #B57317",
"Z#	c #BA7719",
"`#	c #DD8D1E",
" $	c #815111",
".$	c #825212",
"+$	c #BD791A",
"@$	c #73450D",
"#$	c #1F1303",
"$$	c #2C1804",
"%$	c #191104",
"&$	c #4F330C",
"*$	c #382307",
"=$	c #302008",
"-$	c #5E3D0E",
";$	c #050401",
">$	c #352308",
",$	c #150E03",
"'$	c #50340C",
")$	c #4B2F0B",
"!$	c #A46815",
"~$	c #C47B17",
"{$	c #B36700",
"]$	c #AC8448",
"^$	c #643D13",
"/$	c #BF6F08",
"($	c #B67417",
"_$	c #B87517",
":$	c #C07A19",
"<$	c #BD7819",
"[$	c #BB7819",
"}$	c #B97418",
"|$	c #B47319",
"1$	c #8F5B14",
"2$	c #69430F",
"3$	c #A86A17",
"4$	c #3D2307",
"5$	c #5A3309",
"6$	c #5B360B",
"7$	c #412A0A",
"8$	c #412A09",
"9$	c #4D310B",
"0$	c #4F320B",
"a$	c #0D0902",
"b$	c #362308",
"c$	c #291A05",
"d$	c #382408",
"e$	c #0E0A03",
"f$	c #724910",
"g$	c #CC8119",
"h$	c #B97314",
"i$	c #A75E00",
"j$	c #B39669",
"k$	c #AF6305",
"l$	c #BD7917",
"m$	c #B47216",
"n$	c #BB7617",
"o$	c #C57D19",
"p$	c #955A12",
"q$	c #6D420D",
"r$	c #855311",
"s$	c #613C0D",
"t$	c #8F5C15",
"u$	c #7B4E12",
"v$	c #673F0E",
"w$	c #5E390C",
"x$	c #75480F",
"y$	c #925D14",
"z$	c #452B0A",
"A$	c #3F2909",
"B$	c #7F5112",
"C$	c #291A06",
"D$	c #261906",
"E$	c #52340B",
"F$	c #271805",
"G$	c #000101",
"H$	c #A66B17",
"I$	c #CE8219",
"J$	c #B8700F",
"K$	c #9E5D01",
"L$	c #8F520C",
"M$	c #CA7B0E",
"N$	c #B87417",
"O$	c #C77F1A",
"P$	c #A16213",
"Q$	c #4D2907",
"R$	c #1F1002",
"S$	c #7B4A0E",
"T$	c #9C6214",
"U$	c #805212",
"V$	c #764A0F",
"W$	c #271705",
"X$	c #7F5213",
"Y$	c #50320B",
"Z$	c #291B06",
"`$	c #835312",
" %	c #040201",
".%	c #3C2709",
"+%	c #55360C",
"@%	c #201505",
"#%	c #100B03",
"$%	c #6F490F",
"%%	c #D6881B",
"&%	c #B17016",
"*%	c #B96B02",
"=%	c #A27024",
"-%	c #5C3A18",
";%	c #BF6A00",
">%	c #B67618",
",%	c #B57316",
"'%	c #B97417",
")%	c #C57E19",
"!%	c #A66815",
"~%	c #6B400B",
"{%	c #563109",
"]%	c #381F05",
"^%	c #78470C",
"/%	c #311C04",
"(%	c #0F0802",
"_%	c #2D1D07",
":%	c #261806",
"<%	c #352207",
"[%	c #181004",
"}%	c #714910",
"|%	c #54330A",
"1%	c #623D0D",
"2%	c #382207",
"3%	c #422B0A",
"4%	c #704910",
"5%	c #D88A1C",
"6%	c #B87416",
"7%	c #B47014",
"8%	c #A75C00",
"9%	c #AB8D5F",
"0%	c #965204",
"a%	c #C87A0E",
"b%	c #B27116",
"c%	c #B37116",
"d%	c #BA7517",
"e%	c #CB811B",
"f%	c #C37D1A",
"g%	c #9A6315",
"h%	c #945B12",
"i%	c #6A3F0C",
"j%	c #50320A",
"k%	c #482D09",
"l%	c #4A2F0A",
"m%	c #4E300A",
"n%	c #7D4F11",
"o%	c #67400D",
"p%	c #482D0A",
"q%	c #8A5913",
"r%	c #8B5813",
"s%	c #A36815",
"t%	c #C57B18",
"u%	c #B47217",
"v%	c #BA6C04",
"w%	c #996110",
"x%	c #B96200",
"y%	c #BE7916",
"z%	c #B37115",
"A%	c #B67216",
"B%	c #B67318",
"C%	c #F49C20",
"D%	c #935D13",
"E%	c #372308",
"F%	c #754B10",
"G%	c #64400E",
"H%	c #7C4E11",
"I%	c #372106",
"J%	c #412808",
"K%	c #3E2507",
"L%	c #211303",
"M%	c #452C0A",
"N%	c #312008",
"O%	c #966114",
"P%	c #D5871B",
"Q%	c #975F14",
"R%	c #C47B18",
"S%	c #B07015",
"T%	c #BA7312",
"U%	c #A75A00",
"V%	c #A98F68",
"W%	c #6D3B08",
"X%	c #BE6700",
"Y%	c #B87717",
"Z%	c #D18319",
"`%	c #855713",
" &	c #5D3B0D",
".&	c #271A05",
"+&	c #150D03",
"@&	c #2D1C05",
"#&	c #462A08",
"$&	c #301D06",
"%&	c #372207",
"&&	c #6E460F",
"*&	c #7C4F11",
"=&	c #A46816",
"-&	c #DE8C1C",
";&	c #BC7617",
">&	c #B57215",
",&	c #AF5E00",
"'&	c #9B6D2D",
")&	c #864705",
"!&	c #C66D00",
"~&	c #B57617",
"{&	c #BB7616",
"]&	c #171004",
"^&	c #885612",
"/&	c #241805",
"(&	c #7D4F10",
"_&	c #885511",
":&	c #6D450E",
"<&	c #8C5A12",
"[&	c #C27B19",
"}&	c #BF7919",
"|&	c #B57216",
"1&	c #B77215",
"2&	c #BA7515",
"3&	c #B56200",
"4&	c #935E16",
"5&	c #824206",
"6&	c #C36A00",
"7&	c #CF8518",
"8&	c #8A5710",
"9&	c #170F04",
"0&	c #462D09",
"a&	c #080401",
"b&	c #66410D",
"c&	c #AB6B15",
"d&	c #CE831A",
"e&	c #D6871A",
"f&	c #D2841A",
"g&	c #BB7517",
"h&	c #BA7516",
"i&	c #B97416",
"j&	c #B67215",
"k&	c #B97312",
"l&	c #B76300",
"m&	c #743F0E",
"n&	c #CE7000",
"o&	c #7B4905",
"p&	c #251A07",
"q&	c #492F0A",
"r&	c #3C2608",
"s&	c #54360B",
"t&	c #AD6D14",
"u&	c #C67C17",
"v&	c #C77C17",
"w&	c #B77315",
"x&	c #B67315",
"y&	c #B47114",
"z&	c #B17015",
"A&	c #B67214",
"B&	c #BF7208",
"C&	c #B06000",
"D&	c #95652A",
"E&	c #704C27",
"F&	c #6C3A05",
"G&	c #432100",
"H&	c #975B08",
"I&	c #D68616",
"J&	c #CC8117",
"K&	c #C67C16",
"L&	c #B16F13",
"M&	c #B27014",
"N&	c #B37114",
"O&	c #B26F13",
"P&	c #B37013",
"Q&	c #B47113",
"R&	c #B87210",
"S&	c #BC7008",
"T&	c #B56700",
"U&	c #A1600D",
"V&	c #8D683C",
"W&	c #734C24",
"X&	c #A25D0E",
"Y&	c #AF6105",
"Z&	c #B86904",
"`&	c #BF6F07",
" *	c #BF730A",
".*	c #BF740D",
"+*	c #BD7109",
"@*	c #BA6E06",
"#*	c #B66A07",
"$*	c #AF6507",
"%*	c #9E6115",
"&*	c #896031",
"**	c #794E20",
"=*	c #855118",
"-*	c #915715",
";*	c #975811",
">*	c #9B5B12",
",*	c #965C17",
"'*	c #8D5A1E",
")*	c #815321",
"                        . + @ # $ % & *                         ",
"                  = - ; > , ' ) ! ~ { ] ^ / (                   ",
"                _ : < [ } | 1 2 3 4 5 6 7 8 9 0 a               ",
"            b c d e f g h i j k l m n o p q r s t u             ",
"          v w x y z A B C D E F G H I J K L M N O P Q           ",
"        R S T U V W X Y Z `  ...+.@.#.$.%.&.*.=.-.;.>.,.        ",
"      '.).!.~.{.].^./.M (._.:.<.[.}.|.1.2.3.4.5.6.7.8.9.0.      ",
"      a.x b.c.d.e.f.g.h.i.j.k.l.m.n.o.p.q.r.s.t.u.v.w.x.y.z.    ",
"    A.B.C.D.E.F.G.H.I.J.K.L.M.N.O.P.Q.R.S._.T.U.V.W.X.Y.Z.`.    ",
"   +.+++@+#+$+%+&+*+=+-+;+7.>+,+'+)+!+~+{+e.]+^+/+(+_+:+<+[+}+  ",
"  |+1+2+3+4+5+6+7+8+9+0+a+b+c+d+e+f+U.g+h+2.q.i+j+k+l+m+n+o+p+  ",
"  q+r+s+$+t+u+v+w+x+y+z+A+B+C+D+E+F+G+H+I+J+K+L+M+N+O+P+Q+R+S+  ",
"T+U+V+W+X+Y+Z+`+ @.@+@@@#@$@%@&@*@=@-@;@>@,@'@)@!@~@{@]@^@/@(@_@",
":@<@[@}@|@1@2@3@4@5@6@e.7@8@9@0@a@b@c@d@e@f@g@X h@X i@j@k@l@m@n@",
"o@p@q@r@s@t@u@v@w@x@y@z@A@B@C@D@E@G F@G@H@I@J@K@L@M@N@O@P@Q@R@S@",
"T@U@V@W@X@Y@Z@`@[@ #.#+#@###$#%#&#*#=#-#;#>#,#'#)#!#~#{#]#^#/#(#",
"_#:#<#[#}#|#1#2#3#4#5#6#7#8#9#0#a#b#c#d#e#f#g#h#i#L+j#k#l#m#n#o#",
"p#q#r#s#t#u#v#w#x#y#z#A#B#C#D#w.E#F#G#H#K@I#J#K#L#M#N#O#P#Q#R#S#",
"T#U#V#W#X#Y#Z#`#2@ $.$+$@$w.#$@@$$%$&$*$=$-$k#;$>$,$'$)$!$~${$]$",
"^$/$($_$:$<$[$}$|$1$2$3$4$=#5$6$7$&$8$9$j#0$a$b$c$d$e$f$g$h$i$j$",
"  k$l$m$n$o$p$q$r$s$t$u$v$w$x$y$z$A$B$~#q C$D$E$0#F$G$H$I$J$K$  ",
"  L$M$m$N$O$P$Q$R$S$T$U$V$W$X$Y$Z$`$-# %.%L++%P+@%#%$%%%&%*%=%  ",
"  -%;%>%,%'%)%!%~%{%]%^%/%(%_%:%<%o [%}%|%1%2%D#3%4%5%6%7%8%9%  ",
"    0%a%b%c%d%e%f%g%h%i%j%k%l%m%r.c$n%o%Q+p%D#q%r%s%t%u%v%w%    ",
"      x%y%z%A%d%B%C%D%E%F%G%H%I%J%N+K%L%M%N%O%P%Q%R%S%T%U%V%    ",
"      W%X%Y%S%A%Z%O.+%`% &.&+&@&#&$&%&&&*&=&-&N$;&s@>&,&'&      ",
"        )&!&~&{&~$q.]&^&j%D#/&(&_&:&<&[&}&R%|&1&>&2&3&4&        ",
"          5&6&7&8&9&0&d@a&k@b&c&d&e&f&g&h&i&j&S%k&l&A#          ",
"            m&n&o&p&q&r&s&t&u&v&w&w&1&x&y&z&A&B&C&D&            ",
"              E&F&G&H&I&J&K&L&M&N&O&P&Q&R&S&T&U&V&              ",
"                  W&X&Y&Z&`& *<@.*+*@*#*$*%*&*                  ",
"                        **=*-*;*>*,*'*)*                        "};
